<mxfile host="app.diagrams.net" modified="2023-01-10T04:33:10.295Z" agent="5.0 (Windows NT 10.0; Win64; x64) AppleWebKit/537.36 (KHTML, like Gecko) Chrome/108.0.0.0 Safari/537.36" version="20.8.3" etag="lsH0_dNNjq5aNrTeBklE" type="github">
  <diagram id="XWq0q9Z49L-wuoTbWkWh" name="Page-1">
    <mxGraphModel dx="1434" dy="764" grid="1" gridSize="10" guides="1" tooltips="1" connect="1" arrows="1" fold="1" page="1" pageScale="1" pageWidth="850" pageHeight="1100" math="0" shadow="0">
      <root>
        <mxCell id="0" />
        <mxCell id="1" parent="0" />
        <mxCell id="B1gmaWjWodis16T6v3EQ-1" value="dead" style="rounded=0;whiteSpace=wrap;html=1;fillColor=#f8cecc;strokeColor=#b85450;" vertex="1" parent="1">
          <mxGeometry x="120" y="210" width="120" height="60" as="geometry" />
        </mxCell>
        <mxCell id="B1gmaWjWodis16T6v3EQ-13" value="" style="edgeStyle=orthogonalEdgeStyle;rounded=0;orthogonalLoop=1;jettySize=auto;html=1;fontColor=#000000;fillColor=#f8cecc;strokeColor=#b85450;" edge="1" parent="1" source="B1gmaWjWodis16T6v3EQ-2" target="B1gmaWjWodis16T6v3EQ-1">
          <mxGeometry relative="1" as="geometry" />
        </mxCell>
        <mxCell id="B1gmaWjWodis16T6v3EQ-14" value="" style="edgeStyle=orthogonalEdgeStyle;rounded=0;orthogonalLoop=1;jettySize=auto;html=1;fontColor=#000000;fillColor=#d5e8d4;strokeColor=#82b366;" edge="1" parent="1" source="B1gmaWjWodis16T6v3EQ-2" target="B1gmaWjWodis16T6v3EQ-7">
          <mxGeometry relative="1" as="geometry" />
        </mxCell>
        <mxCell id="B1gmaWjWodis16T6v3EQ-2" value="Contact" style="rhombus;whiteSpace=wrap;html=1;" vertex="1" parent="1">
          <mxGeometry x="320" y="200" width="80" height="80" as="geometry" />
        </mxCell>
        <mxCell id="B1gmaWjWodis16T6v3EQ-12" value="" style="edgeStyle=orthogonalEdgeStyle;rounded=0;orthogonalLoop=1;jettySize=auto;html=1;fontColor=#000000;" edge="1" parent="1" source="B1gmaWjWodis16T6v3EQ-3" target="B1gmaWjWodis16T6v3EQ-2">
          <mxGeometry relative="1" as="geometry" />
        </mxCell>
        <mxCell id="B1gmaWjWodis16T6v3EQ-3" value="Lead" style="ellipse;whiteSpace=wrap;html=1;aspect=fixed;" vertex="1" parent="1">
          <mxGeometry x="320" y="40" width="80" height="80" as="geometry" />
        </mxCell>
        <mxCell id="B1gmaWjWodis16T6v3EQ-15" value="" style="edgeStyle=orthogonalEdgeStyle;rounded=0;orthogonalLoop=1;jettySize=auto;html=1;fontColor=#000000;" edge="1" parent="1" source="B1gmaWjWodis16T6v3EQ-7" target="B1gmaWjWodis16T6v3EQ-8">
          <mxGeometry relative="1" as="geometry" />
        </mxCell>
        <mxCell id="B1gmaWjWodis16T6v3EQ-7" value="contactSuccess" style="rounded=0;whiteSpace=wrap;html=1;fillColor=#d5e8d4;strokeColor=#82b366;" vertex="1" parent="1">
          <mxGeometry x="480" y="210" width="120" height="60" as="geometry" />
        </mxCell>
        <mxCell id="B1gmaWjWodis16T6v3EQ-16" value="" style="edgeStyle=orthogonalEdgeStyle;rounded=0;orthogonalLoop=1;jettySize=auto;html=1;fontColor=#000000;" edge="1" parent="1" source="B1gmaWjWodis16T6v3EQ-8" target="B1gmaWjWodis16T6v3EQ-9">
          <mxGeometry relative="1" as="geometry" />
        </mxCell>
        <mxCell id="B1gmaWjWodis16T6v3EQ-8" value="met" style="rounded=0;whiteSpace=wrap;html=1;fillColor=#d5e8d4;strokeColor=#82b366;" vertex="1" parent="1">
          <mxGeometry x="480" y="310" width="120" height="60" as="geometry" />
        </mxCell>
        <mxCell id="B1gmaWjWodis16T6v3EQ-17" value="" style="edgeStyle=orthogonalEdgeStyle;rounded=0;orthogonalLoop=1;jettySize=auto;html=1;fontColor=#000000;" edge="1" parent="1" source="B1gmaWjWodis16T6v3EQ-9" target="B1gmaWjWodis16T6v3EQ-10">
          <mxGeometry relative="1" as="geometry" />
        </mxCell>
        <mxCell id="B1gmaWjWodis16T6v3EQ-9" value="quote" style="rounded=0;whiteSpace=wrap;html=1;fillColor=#d5e8d4;strokeColor=#82b366;" vertex="1" parent="1">
          <mxGeometry x="480" y="410" width="120" height="60" as="geometry" />
        </mxCell>
        <mxCell id="B1gmaWjWodis16T6v3EQ-10" value="proposal" style="rounded=0;whiteSpace=wrap;html=1;fillColor=#d5e8d4;strokeColor=#82b366;" vertex="1" parent="1">
          <mxGeometry x="480" y="510" width="120" height="60" as="geometry" />
        </mxCell>
        <mxCell id="B1gmaWjWodis16T6v3EQ-11" value="policy" style="rounded=0;whiteSpace=wrap;html=1;" vertex="1" parent="1">
          <mxGeometry x="480" y="690" width="120" height="60" as="geometry" />
        </mxCell>
      </root>
    </mxGraphModel>
  </diagram>
</mxfile>
